<svg width="34" height="34" viewBox="0 0 34 34" fill="none" xmlns="http://www.w3.org/2000/svg">
  <path fill-rule="evenodd" clip-rule="evenodd" d="M17.5322 8.7036C16.3781 6.70469 17.063 4.1487 19.0619 2.99463C21.0608 1.84056 23.6168 2.52543 24.7708 4.52434C25.1508 5.18242 25.3314 5.90088 25.3314 6.60982C25.3315 7.11754 25.1464 7.71785 24.9453 8.36996C24.6506 9.32557 24.3829 10.5393 25.3581 12.2283C26.3332 13.9173 27.5182 14.2923 28.4931 14.5149C29.1584 14.6668 29.7708 14.8067 30.2105 15.0606C30.8244 15.4151 31.3563 15.9307 31.7363 16.5888C32.8903 18.5877 32.2055 21.1437 30.2065 22.2978C28.2076 23.4519 25.6516 22.767 24.4976 20.7681C24.1176 20.11 23.937 19.3915 23.937 18.6826C23.9369 18.1749 24.122 17.5746 24.3231 16.9224C24.6178 15.9668 24.7462 14.5119 23.9103 13.0641C23.0745 11.6164 21.7502 11.0001 20.7753 10.7775C20.11 10.6256 19.4976 10.4857 19.0579 10.2318C18.444 9.87733 17.9121 9.36168 17.5322 8.7036Z" fill="white"/>
  <path opacity="0.7" fill-rule="evenodd" clip-rule="evenodd" d="M9.81089 13.1615C8.65682 11.1626 9.3417 8.60657 11.3406 7.4525C13.3395 6.29843 15.8955 6.98331 17.0496 8.98221C17.4295 9.64029 17.6101 10.3588 17.6102 11.0677C17.6102 11.5754 17.4251 12.1757 17.224 12.8278C16.9294 13.7834 16.6617 14.9971 17.6368 16.6862C18.612 18.3752 19.7969 18.7502 20.7718 18.9728C21.4371 19.1247 22.0495 19.2646 22.4892 19.5184C23.1032 19.873 23.6351 20.3886 24.015 21.0467C25.1691 23.0456 24.4842 25.6016 22.4853 26.7557C20.4864 27.9097 17.9304 27.2249 16.7763 25.2259C16.3964 24.5679 16.2157 23.8494 16.2157 23.1405C16.2157 22.6327 16.4008 22.0324 16.6019 21.3803C16.8965 20.4247 17.0249 18.9697 16.1891 17.522C15.3532 16.0743 14.029 15.458 13.0541 15.2354C12.3888 15.0834 11.7763 14.9436 11.3367 14.6897C10.7227 14.3352 10.1908 13.8195 9.81089 13.1615Z" fill="#FF0000"/>
  <path fill-rule="evenodd" clip-rule="evenodd" d="M2.08963 17.6193C0.935558 15.6204 1.62043 13.0644 3.61934 11.9104C5.61825 10.7563 8.17424 11.4412 9.32831 13.4401C9.70825 14.0982 9.88888 14.8166 9.88892 15.5256C9.88895 16.0333 9.70385 16.6336 9.50276 17.2857C9.2081 18.2413 8.94039 19.455 9.91555 21.144C10.8907 22.8331 12.0756 23.2081 13.0506 23.4307C13.7158 23.5826 14.3283 23.7224 14.768 23.9763C15.3819 24.3308 15.9138 24.8465 16.2937 25.5046C17.4478 27.5035 16.7629 30.0595 14.764 31.2135C12.7651 32.3676 10.2091 31.6827 9.05506 29.6838C8.67511 29.0257 8.49449 28.3073 8.49444 27.5983C8.49441 27.0906 8.67952 26.4903 8.8806 25.8382C9.17527 24.8826 9.30367 23.4276 8.46782 21.9799C7.63196 20.5321 6.30773 19.9159 5.33281 19.6932C4.66752 19.5413 4.05508 19.4015 3.6154 19.1476C3.00146 18.7931 2.46957 18.2774 2.08963 17.6193Z" fill="white"/>
</svg>
